<?xml version="1.0" encoding="UTF-8" standalone="no"?>
<!-- Generator: Adobe Illustrator 19.0.0, SVG Export Plug-In . SVG Version: 6.00 Build 0)  -->

<svg
   xmlns:dc="http://purl.org/dc/elements/1.1/"
   xmlns:cc="http://creativecommons.org/ns#"
   xmlns:rdf="http://www.w3.org/1999/02/22-rdf-syntax-ns#"
   xmlns:svg="http://www.w3.org/2000/svg"
   xmlns="http://www.w3.org/2000/svg"
   xmlns:sodipodi="http://sodipodi.sourceforge.net/DTD/sodipodi-0.dtd"
   xmlns:inkscape="http://www.inkscape.org/namespaces/inkscape"
   version="1.1"
   id="Layer_1"
   x="0px"
   y="0px"
   viewBox="0 0 511.254 511.254"
   style="enable-background:new 0 0 511.254 511.254;"
   xml:space="preserve"
   inkscape:version="0.91 r13725"
   width="100%"
   height="100%"
   sodipodi:docname="bug.svg"
   inkscape:export-filename="C:\Users\mkopca\WebExtensions\universal-debug-from-log-file\icons\bug.png"
   inkscape:export-xdpi="8.4498119"
   inkscape:export-ydpi="8.4498119"><metadata
     id="metadata67"><rdf:RDF><cc:Work
         rdf:about=""><dc:format>image/svg+xml</dc:format><dc:type
           rdf:resource="http://purl.org/dc/dcmitype/StillImage" /><dc:title /></cc:Work></rdf:RDF></metadata><defs
     id="defs65"><inkscape:perspective
       sodipodi:type="inkscape:persp3d"
       inkscape:vp_x="NaN : NaN : 1"
       inkscape:vp_y="NaN : NaN : 0"
       inkscape:vp_z="NaN : NaN : 1"
       inkscape:persp3d-origin="NaN : NaN : 1"
       id="perspective69" /><inkscape:perspective
       id="perspective3681"
       inkscape:persp3d-origin="0.5 : 0.33333333 : 1"
       inkscape:vp_z="1 : 0.5 : 1"
       inkscape:vp_y="0 : 1000 : 0"
       inkscape:vp_x="0 : 0.5 : 1"
       sodipodi:type="inkscape:persp3d" /><inkscape:perspective
       id="perspective3703"
       inkscape:persp3d-origin="0.5 : 0.33333333 : 1"
       inkscape:vp_z="1 : 0.5 : 1"
       inkscape:vp_y="0 : 1000 : 0"
       inkscape:vp_x="0 : 0.5 : 1"
       sodipodi:type="inkscape:persp3d" /><inkscape:perspective
       id="perspective3725"
       inkscape:persp3d-origin="0.5 : 0.33333333 : 1"
       inkscape:vp_z="1 : 0.5 : 1"
       inkscape:vp_y="0 : 1000 : 0"
       inkscape:vp_x="0 : 0.5 : 1"
       sodipodi:type="inkscape:persp3d" /><inkscape:perspective
       id="perspective3747"
       inkscape:persp3d-origin="0.5 : 0.33333333 : 1"
       inkscape:vp_z="1 : 0.5 : 1"
       inkscape:vp_y="0 : 1000 : 0"
       inkscape:vp_x="0 : 0.5 : 1"
       sodipodi:type="inkscape:persp3d" /><inkscape:perspective
       id="perspective3779"
       inkscape:persp3d-origin="0.5 : 0.33333333 : 1"
       inkscape:vp_z="1 : 0.5 : 1"
       inkscape:vp_y="0 : 1000 : 0"
       inkscape:vp_x="0 : 0.5 : 1"
       sodipodi:type="inkscape:persp3d" /><inkscape:perspective
       id="perspective3832"
       inkscape:persp3d-origin="0.5 : 0.33333333 : 1"
       inkscape:vp_z="1 : 0.5 : 1"
       inkscape:vp_y="0 : 1000 : 0"
       inkscape:vp_x="0 : 0.5 : 1"
       sodipodi:type="inkscape:persp3d" /><inkscape:perspective
       id="perspective3854"
       inkscape:persp3d-origin="0.5 : 0.33333333 : 1"
       inkscape:vp_z="1 : 0.5 : 1"
       inkscape:vp_y="0 : 1000 : 0"
       inkscape:vp_x="0 : 0.5 : 1"
       sodipodi:type="inkscape:persp3d" /><inkscape:perspective
       id="perspective3884"
       inkscape:persp3d-origin="0.5 : 0.33333333 : 1"
       inkscape:vp_z="1 : 0.5 : 1"
       inkscape:vp_y="0 : 1000 : 0"
       inkscape:vp_x="0 : 0.5 : 1"
       sodipodi:type="inkscape:persp3d" /><inkscape:perspective
       id="perspective3908"
       inkscape:persp3d-origin="0.5 : 0.33333333 : 1"
       inkscape:vp_z="1 : 0.5 : 1"
       inkscape:vp_y="0 : 1000 : 0"
       inkscape:vp_x="0 : 0.5 : 1"
       sodipodi:type="inkscape:persp3d" /><inkscape:perspective
       id="perspective3943"
       inkscape:persp3d-origin="0.5 : 0.33333333 : 1"
       inkscape:vp_z="1 : 0.5 : 1"
       inkscape:vp_y="0 : 1000 : 0"
       inkscape:vp_x="0 : 0.5 : 1"
       sodipodi:type="inkscape:persp3d" /><inkscape:perspective
       id="perspective3978"
       inkscape:persp3d-origin="0.5 : 0.33333333 : 1"
       inkscape:vp_z="1 : 0.5 : 1"
       inkscape:vp_y="0 : 1000 : 0"
       inkscape:vp_x="0 : 0.5 : 1"
       sodipodi:type="inkscape:persp3d" /><inkscape:perspective
       id="perspective4014"
       inkscape:persp3d-origin="0.5 : 0.33333333 : 1"
       inkscape:vp_z="1 : 0.5 : 1"
       inkscape:vp_y="0 : 1000 : 0"
       inkscape:vp_x="0 : 0.5 : 1"
       sodipodi:type="inkscape:persp3d" /><inkscape:perspective
       id="perspective4036"
       inkscape:persp3d-origin="0.5 : 0.33333333 : 1"
       inkscape:vp_z="1 : 0.5 : 1"
       inkscape:vp_y="0 : 1000 : 0"
       inkscape:vp_x="0 : 0.5 : 1"
       sodipodi:type="inkscape:persp3d" /><inkscape:perspective
       id="perspective4058"
       inkscape:persp3d-origin="0.5 : 0.33333333 : 1"
       inkscape:vp_z="1 : 0.5 : 1"
       inkscape:vp_y="0 : 1000 : 0"
       inkscape:vp_x="0 : 0.5 : 1"
       sodipodi:type="inkscape:persp3d" /><inkscape:perspective
       id="perspective4080"
       inkscape:persp3d-origin="0.5 : 0.33333333 : 1"
       inkscape:vp_z="1 : 0.5 : 1"
       inkscape:vp_y="0 : 1000 : 0"
       inkscape:vp_x="0 : 0.5 : 1"
       sodipodi:type="inkscape:persp3d" /><inkscape:perspective
       id="perspective4102"
       inkscape:persp3d-origin="0.5 : 0.33333333 : 1"
       inkscape:vp_z="1 : 0.5 : 1"
       inkscape:vp_y="0 : 1000 : 0"
       inkscape:vp_x="0 : 0.5 : 1"
       sodipodi:type="inkscape:persp3d" /><inkscape:perspective
       id="perspective4124"
       inkscape:persp3d-origin="0.5 : 0.33333333 : 1"
       inkscape:vp_z="1 : 0.5 : 1"
       inkscape:vp_y="0 : 1000 : 0"
       inkscape:vp_x="0 : 0.5 : 1"
       sodipodi:type="inkscape:persp3d" /><inkscape:perspective
       id="perspective4146"
       inkscape:persp3d-origin="0.5 : 0.33333333 : 1"
       inkscape:vp_z="1 : 0.5 : 1"
       inkscape:vp_y="0 : 1000 : 0"
       inkscape:vp_x="0 : 0.5 : 1"
       sodipodi:type="inkscape:persp3d" /><inkscape:perspective
       id="perspective4168"
       inkscape:persp3d-origin="0.5 : 0.33333333 : 1"
       inkscape:vp_z="1 : 0.5 : 1"
       inkscape:vp_y="0 : 1000 : 0"
       inkscape:vp_x="0 : 0.5 : 1"
       sodipodi:type="inkscape:persp3d" /><inkscape:perspective
       id="perspective4190"
       inkscape:persp3d-origin="0.5 : 0.33333333 : 1"
       inkscape:vp_z="1 : 0.5 : 1"
       inkscape:vp_y="0 : 1000 : 0"
       inkscape:vp_x="0 : 0.5 : 1"
       sodipodi:type="inkscape:persp3d" /><inkscape:perspective
       id="perspective4212"
       inkscape:persp3d-origin="0.5 : 0.33333333 : 1"
       inkscape:vp_z="1 : 0.5 : 1"
       inkscape:vp_y="0 : 1000 : 0"
       inkscape:vp_x="0 : 0.5 : 1"
       sodipodi:type="inkscape:persp3d" /><inkscape:perspective
       id="perspective3736"
       inkscape:persp3d-origin="0.5 : 0.33333333 : 1"
       inkscape:vp_z="1 : 0.5 : 1"
       inkscape:vp_y="0 : 1000 : 0"
       inkscape:vp_x="0 : 0.5 : 1"
       sodipodi:type="inkscape:persp3d" /><inkscape:perspective
       id="perspective3796"
       inkscape:persp3d-origin="0.5 : 0.33333333 : 1"
       inkscape:vp_z="1 : 0.5 : 1"
       inkscape:vp_y="0 : 1000 : 0"
       inkscape:vp_x="0 : 0.5 : 1"
       sodipodi:type="inkscape:persp3d" /><inkscape:perspective
       id="perspective3885"
       inkscape:persp3d-origin="0.5 : 0.33333333 : 1"
       inkscape:vp_z="1 : 0.5 : 1"
       inkscape:vp_y="0 : 1000 : 0"
       inkscape:vp_x="0 : 0.5 : 1"
       sodipodi:type="inkscape:persp3d" /><inkscape:perspective
       id="perspective3944"
       inkscape:persp3d-origin="0.5 : 0.33333333 : 1"
       inkscape:vp_z="1 : 0.5 : 1"
       inkscape:vp_y="0 : 1000 : 0"
       inkscape:vp_x="0 : 0.5 : 1"
       sodipodi:type="inkscape:persp3d" /></defs><sodipodi:namedview
     pagecolor="#ffffff"
     bordercolor="#666666"
     borderopacity="1"
     objecttolerance="10"
     gridtolerance="10"
     guidetolerance="10"
     inkscape:pageopacity="0"
     inkscape:pageshadow="2"
     inkscape:window-width="1366"
     inkscape:window-height="703"
     id="namedview63"
     showgrid="false"
     inkscape:zoom="0.50000001"
     inkscape:cx="466.81455"
     inkscape:cy="307.99974"
     inkscape:window-x="0"
     inkscape:window-y="292"
     inkscape:window-maximized="1"
     inkscape:current-layer="Layer_1" /><g
     id="g33" /><g
     id="g35" /><g
     id="g37" /><g
     id="g39" /><g
     id="g41" /><g
     id="g43" /><g
     id="g45" /><g
     id="g47" /><g
     id="g49" /><g
     id="g51" /><g
     id="g53" /><g
     id="g55" /><g
     id="g57" /><g
     id="g59" /><g
     id="g61" /><path
     style="opacity:0.48425197;fill:#1a1a1a;fill-opacity:1;stroke:none"
     d="m 291.55132,96.941991 c -28.18575,0.674687 -30.32428,32.271979 -57.40661,47.372039 -44.69667,27.70822 -61.0483,50.78585 -60.28932,74.97078 -0.0922,2.76042 3.54967,31.57294 3.47077,34.26555 -5.1052,174.11768 13.36363,181.30637 34.82777,201.47671 20.73065,22.10795 59.42303,53.51483 79.39739,54.91803 19.97452,-1.4032 58.66656,-32.81008 79.39737,-54.91803 21.03698,-19.76877 35.55515,-28.41075 31.60613,-193.61499 -0.14272,-5.96256 6.90308,-35.81294 6.69239,-42.12727 0.75901,-24.18493 -15.59231,-47.26256 -60.2893,-74.97078 -27.08252,-15.10006 -29.22064,-46.697352 -57.40659,-47.372039 z"
     id="rect3793-3"
     sodipodi:nodetypes="cccscccsccc" /><g
     id="g4013"
     transform="matrix(1.1318853,0,0,1.1318853,-53.496986,-33.929212)"><path
       sodipodi:nodetypes="ccccscccc"
       id="rect3930-6-1-4"
       d="m 346.7553,128.75732 c 1.00466,3.0291 -4.6362,7.74003 -5.74996,8.13247 -4.80256,3.67564 -8.35986,4.8772 -17.3322,7.30801 l -23.4414,4.5132 c -1.11452,0.3902 -2.48557,-0.63253 -2.8502,-1.82245 -0.50493,-1.64856 0.0819,-3.05393 1.19579,-3.4463 l 21.1557,-12.47197 c 5.40161,-3.01928 11.18626,-4.6858 17.4935,-5.30101 1.11459,-0.39021 8.52397,0.0597 9.52877,3.08857 z"
       style="fill:#1a1a1a;fill-opacity:1;stroke:none"
       inkscape:connector-curvature="0" /><path
       sodipodi:nodetypes="ccccscccc"
       id="rect3930-6-1-4-3"
       d="m 367.29372,153.72109 c 2.05902,2.52676 -1.45352,9.06414 -2.34632,9.8418 -3.11471,5.24598 -5.9855,7.68031 -13.4485,13.24791 l -20.17903,12.79263 c -0.89433,0.77579 -2.5514,0.29618 -3.33223,-0.70727 -1.0816,-1.39034 -1.05542,-2.9438 -0.1624,-3.72147 l 15.09906,-19.5597 c 3.91638,-4.83652 8.69114,-8.52086 14.34261,-11.39117 0.89438,-0.77585 7.9679,-3.02892 10.02701,-0.50225 z"
       style="fill:#1a1a1a;fill-opacity:1;stroke:none"
       inkscape:connector-curvature="0" /><path
       sodipodi:nodetypes="ccccscccc"
       id="rect3930-6-1-4-3-2"
       d="m 347.64939,247.03343 c -1.178,-3.03914 4.18182,-8.17214 5.27114,-8.63607 4.58262,-4.02756 8.06485,-5.45631 16.88252,-8.44687 l 23.14341,-5.93522 c 1.0902,-0.46169 2.51815,0.50625 2.9509,1.70182 0.59934,1.65637 0.0947,3.12581 -0.99485,3.58967 l -20.40172,13.94038 c -5.21861,3.39055 -10.89783,5.42017 -17.15946,6.40477 -1.09027,0.46173 -8.51384,0.42007 -9.69198,-2.619 z"
       style="fill:#1a1a1a;fill-opacity:1;stroke:none"
       inkscape:connector-curvature="0" /><path
       style="fill:#1a1a1a;fill-opacity:1;stroke:none"
       d="m 186.61817,153.72109 c -2.05902,2.52676 1.45352,9.06414 2.34632,9.8418 3.11472,5.24598 5.9855,7.68031 13.4485,13.24791 l 20.17902,12.79263 c 0.89434,0.77579 2.55141,0.29618 3.33224,-0.70727 1.0816,-1.39034 1.05542,-2.9438 0.1624,-3.72147 l -15.09906,-19.5597 c -3.91637,-4.83652 -8.69114,-8.52086 -14.34261,-11.39117 -0.89437,-0.77585 -7.9679,-3.02892 -10.02701,-0.50225 z"
       id="path4226"
       sodipodi:nodetypes="ccccscccc"
       inkscape:connector-curvature="0" /><path
       style="fill:#1a1a1a;fill-opacity:1;stroke:none"
       d="m 206.2625,247.03343 c 1.178,-3.03914 -4.18182,-8.17214 -5.27114,-8.63607 -4.58262,-4.02756 -8.06485,-5.45631 -16.88252,-8.44687 l -23.14341,-5.93522 c -1.0902,-0.46169 -2.51815,0.50625 -2.9509,1.70182 -0.59934,1.65637 -0.0947,3.12581 0.99485,3.58967 l 20.40172,13.94038 c 5.21861,3.39055 10.89783,5.42017 17.15946,6.40477 1.09027,0.46173 8.51384,0.42007 9.69198,-2.619 z"
       id="path4228"
       sodipodi:nodetypes="ccccscccc"
       inkscape:connector-curvature="0" /><path
       style="fill:#1a1a1a;fill-opacity:1;stroke:none"
       d="m 204.05557,47.607409 c 5.6439,4.419402 9.27438,5.624815 15.27205,9.759623 11.35365,9.932215 11.61454,10.923773 16.58104,17.710231 9.83374,13.99129 11.85014,19.647384 17.98,28.208437 0.6323,1.06807 1.82847,3.08368 2.80883,2.93726 1.10267,-0.16459 0.37619,-5.51916 -0.25042,-7.056225 -4.6119,-10.361319 -7.63442,-19.06467 -12.23259,-27.608007 -3.62292,-7.186932 -8.34949,-18.5408 -15.40356,-23.051252 -6.15233,-3.938503 -13.1073,-8.845234 -23.43728,-10.67342 -3.70168,-1.063447 -5.76752,1.353628 -6.06976,2.506611 -0.40565,2.461862 -0.57465,3.524388 4.75169,7.266742 z"
       id="path4230"
       sodipodi:nodetypes="ccccscccccc"
       inkscape:connector-curvature="0" /><path
       sodipodi:nodetypes="ccsccsc"
       id="path4232"
       d="m 237.1441,133.00664 11.55822,1.39225 c 8.97142,2.29311 14.77937,4.61113 14.77937,10.23715 0,5.62598 -10.73438,8.68107 -17.24262,8.68107 l -9.09497,0 c -6.50824,0 -12.97932,-5.75769 -12.97932,-11.3837 0,-5.62601 6.47108,-8.92677 12.97932,-8.92677 z"
       style="fill:#1a1a1a;fill-opacity:1;stroke:none"
       inkscape:connector-curvature="0" /><path
       style="fill:#1a1a1a;fill-opacity:1;stroke:none"
       d="m 211.96629,133.83886 c 2.76703,-0.8986 1.15706,-13.4391 0.49434,-15.47976 -1.58548,-10.40513 -3.73527,-16.88064 -9.542,-32.727703 L 186.56965,45.717168 c -0.66277,-2.040596 -2.44598,-3.332522 -3.50853,-2.932514 -1.47148,0.553979 -1.89083,2.599809 -1.22814,4.640446 l 9.36961,42.823626 c 2.49822,10.800294 6.17825,21.097634 10.96126,31.352004 0.66282,2.04065 7.03553,13.13666 9.80244,12.23813 z"
       id="path4234"
       sodipodi:nodetypes="ccccscccc"
       inkscape:connector-curvature="0" /><path
       style="fill:#1a1a1a;fill-opacity:1;stroke:none"
       d="m 186.05388,46.719362 c 0.91405,-1.8477 -3.29846,-5.84217 -4.15295,-6.275089 -3.60052,-3.179057 -6.33185,-4.527442 -13.24625,-7.531626 L 150.51222,26.27971 c -0.8547,-0.432482 -1.9707,0.03175 -2.30622,0.762514 -0.46468,1.012164 -0.0652,2.03325 0.78941,2.46616 l 16.01808,11.542973 c 4.09683,2.837949 8.55044,4.840532 13.45729,6.228864 0.85475,0.432491 6.6691,1.286668 7.5831,-0.560955 z"
       id="path4236"
       sodipodi:nodetypes="ccccscccc"
       inkscape:connector-curvature="0" /><path
       style="fill:#1a1a1a;fill-opacity:1;stroke:none"
       d="m 205.02353,169.81097 c 1.91367,-2.19127 -7.9785,-13.9364 -9.95313,-15.66031 -8.4359,-9.62917 -14.74456,-15.07755 -30.68003,-28.15567 l -41.7056,-32.13364 c -1.97401,-1.72453 -4.46601,-2.177089 -5.16435,-1.281232 -0.96714,1.240684 0.0262,3.476022 2.00066,5.199873 l 37.30801,38.299179 c 9.53225,9.59597 19.80225,18.13766 31.04731,26.12042 1.97409,1.7246 15.23243,9.80162 17.14713,7.61138 z"
       id="path4238"
       sodipodi:nodetypes="ccccscccc"
       inkscape:connector-curvature="0" /><path
       style="fill:#1a1a1a;fill-opacity:1;stroke:none"
       d="m 123.27072,94.600642 c -0.42314,-2.017527 -6.20348,-2.554956 -7.14281,-2.367316 -4.79529,-0.274504 -7.77594,0.353182 -15.06861,2.263967 l -18.362744,5.996097 c -0.939252,0.18815 -1.529787,1.24277 -1.342029,2.02464 0.260121,1.08293 1.205251,1.63883 2.144602,1.45114 l 19.726671,-0.823 c 4.97474,-0.30036 9.71377,-1.47799 14.42953,-3.418635 0.93927,-0.188135 6.03844,-3.109521 5.61533,-5.126978 z"
       id="path4240"
       sodipodi:nodetypes="ccccscccc"
       inkscape:connector-curvature="0" /><path
       style="fill:#1a1a1a;fill-opacity:1;stroke:none"
       d="m 160.64602,223.88458 c -2.65874,-1.18111 -10.95812,11.7388 -12.02186,14.13449 -6.70794,10.90366 -10.0499,18.54011 -17.83786,37.62738 l -18.38176,49.33598 c -1.06455,2.39528 -0.76091,4.90979 0.30127,5.31238 1.47099,0.55751 3.31322,-1.05171 4.377,-3.44726 l 25.57112,-46.95562 c 6.35238,-11.94128 11.47961,-24.27597 15.78489,-37.37713 1.06458,-2.3954 4.86525,-17.44786 2.2072,-18.63022 z"
       id="path4242"
       sodipodi:nodetypes="ccccscccc"
       inkscape:connector-curvature="0" /><path
       sodipodi:nodetypes="cccscccsccc"
       id="rect3793"
       d="m 276.95495,84.803601 c -20.3054,0.651424 -21.84602,31.159539 -41.35651,45.739089 -32.20008,26.75309 -43.98001,49.03521 -43.43324,72.38648 -0.0665,2.66526 2.55723,30.48459 2.50039,33.08439 -3.67786,168.1157 9.62734,175.0566 25.0904,194.53164 14.93464,21.34587 42.80916,51.67014 57.19896,53.02497 14.38994,-1.35483 42.26421,-31.6791 57.19897,-53.02497 15.15533,-19.08732 25.61442,-27.43141 22.76949,-186.94092 -0.10278,-5.75703 4.97308,-34.57845 4.8213,-40.67511 C 362.2915,179.5779 350.51179,157.29578 318.31147,130.54269 298.80084,115.96314 297.2605,85.455025 276.95495,84.803601 Z"
       style="fill:#1a1a1a;fill-opacity:1;stroke:none"
       inkscape:connector-curvature="0" /><path
       style="fill:#1a1a1a;fill-opacity:1;stroke:none"
       d="m 117.46262,325.20408 c -1.05096,-1.77366 -8.08544,0.32107 -9.1541,0.92935 -5.78934,1.90465 -9.171542,3.86626 -17.345055,9.03091 l -20.259669,14.15874 c -1.068047,0.60933 -1.486463,1.90351 -1.050778,2.58013 0.60346,0.9371 1.880441,1.05054 2.949072,0.44224 l 23.286927,-9.73718 c 5.847393,-2.54596 11.176193,-5.83973 16.270503,-9.86628 1.06808,-0.60935 6.35397,-5.76429 5.30302,-7.53792 z"
       id="path4244"
       sodipodi:nodetypes="ccccscccc"
       inkscape:connector-curvature="0" /><path
       sodipodi:nodetypes="ccccccccc"
       id="rect3793-2"
       d="m 276.93117,84.540916 c -16.94951,0.640849 -18.23555,30.653214 -34.52153,44.995834 -26.87835,26.31834 -43.42442,48.23838 -42.96801,71.21018 -3.6372,172.1723 16.63676,204.46236 29.74385,223.91723 12.46636,20.99899 36.20875,23.75335 48.22037,25.08616 12.01171,-1.33281 34.80453,-4.08717 47.271,-25.08616 13.10718,-19.45487 32.03848,-52.49574 28.40125,-224.66807 0.45642,-22.97179 -14.74684,-44.141 -41.62541,-70.45934 -16.28613,-14.34262 -17.57187,-44.354985 -34.52152,-44.995834 z"
       style="fill:#58a23f;fill-opacity:1;stroke:none"
       inkscape:connector-curvature="0" /><path
       sodipodi:nodetypes="ccccccccc"
       id="rect3793-2-4"
       d="m 276.25823,128.21515 c -16.15047,0.5392 -17.37591,13.87519 -32.89414,25.94304 -25.61128,22.14415 -34.98084,40.5876 -34.54596,59.91603 -3.4657,144.8652 9.45597,172.03395 21.94516,188.4032 11.87871,17.66847 34.04958,27.87323 45.49494,28.99464 11.44548,-1.12141 33.61611,-11.32617 45.4949,-28.99464 12.48932,-16.36925 25.41097,-43.538 21.94517,-188.4032 0.43489,-19.32843 -8.93445,-37.77188 -34.54594,-59.91603 -15.51838,-12.06785 -16.7435,-25.40384 -32.89413,-25.94304 z"
       style="fill:#c2ad1e;fill-opacity:1;stroke:none"
       inkscape:connector-curvature="0" /><path
       id="rect3793-2-4-1"
       d="m 273.65619,128.03674 c -12.90552,2.26007 -15.0682,14.46797 -29.375,25.59375 -25.61128,22.14415 -34.96613,40.60907 -34.53125,59.9375 -3.4657,144.8652 9.44831,172.00575 21.9375,188.375 10.75962,16.00393 29.94012,25.85327 41.96875,28.40625 l 0,-302.3125 z"
       style="fill:#ffee71;fill-opacity:1;stroke:none"
       inkscape:connector-curvature="0" /><path
       sodipodi:nodetypes="cccscccsccccc"
       id="rect3868"
       d="m 274.03178,179.51822 c -8.73414,3.23294 -3.71987,40.79644 -30.11895,38.50824 -17.71843,-9.01153 9.49878,-32.73194 -2.06294,-38.16441 -17.49856,0 -30.1877,12.9642 -30.1877,30.46276 0,17.49855 14.06444,31.63178 31.56301,31.63178 l 33.6947,0 32.25066,0 c 17.49855,0 31.56299,-14.13323 31.56299,-31.63178 0,-17.49856 -12.68914,-30.46276 -30.18771,-30.46276 -11.56171,5.43247 15.65549,29.15288 -2.06294,38.16441 -26.39907,2.2882 -21.38478,-35.2753 -30.11894,-38.50824 -0.58153,-0.25092 -1.29755,-0.42689 -2.13171,-0.55011 -0.7712,0.004 -1.47413,0.36267 -2.20047,0.55011 z"
       style="fill:#1a1a1a;fill-opacity:1;stroke:none"
       inkscape:connector-curvature="0" /><path
       sodipodi:nodetypes="ccsccsc"
       id="rect3871"
       d="m 226.5419,264.64704 16.7786,1.9647 c 13.02349,3.23597 21.45458,6.50707 21.45458,14.44629 0,7.9392 -15.58263,12.25043 -25.03034,12.25043 l -13.20284,0 c -9.44771,0 -18.84153,-8.12506 -18.84153,-16.06427 0,-7.93921 9.39382,-12.59715 18.84153,-12.59715 z"
       style="fill:#1a1a1a;fill-opacity:1;stroke:none"
       inkscape:connector-curvature="0" /><path
       style="fill:#1a1a1a;fill-opacity:1;stroke:none"
       d="m 325.98769,264.41919 -16.77858,1.96468 c -13.0235,3.23598 -21.45461,6.50708 -21.45461,14.4463 0,7.9392 15.58266,12.25043 25.03038,12.25043 l 13.20281,0 c 9.44773,0 18.84153,-8.12506 18.84153,-16.06427 0,-7.93922 -9.3938,-12.59714 -18.84153,-12.59714 z"
       id="path3874"
       sodipodi:nodetypes="ccsccsc"
       inkscape:connector-curvature="0" /><path
       sodipodi:nodetypes="ccsccsc"
       id="rect3871-5"
       d="m 235.33009,318.95047 c 7.33935,2.23471 10.76391,5.32935 17.16757,6.63261 13.0235,3.23597 17.95368,4.17313 17.95368,12.11233 0,7.93922 -7.80282,15.75137 -17.25052,15.75137 l -18.64872,0.389 c -9.44772,0 -18.06355,-11.62599 -18.06355,-19.56519 0,-7.93922 9.00481,-18.04303 18.84154,-15.32012 z"
       style="fill:#1a1a1a;fill-opacity:1;stroke:none"
       inkscape:connector-curvature="0" /><path
       style="fill:#1a1a1a;fill-opacity:1;stroke:none"
       d="m 317.64404,317.00553 c -7.33937,2.23469 -10.76393,5.32934 -17.16759,6.6326 -13.02348,3.23597 -17.95367,4.17312 -17.95367,12.11233 0,7.93921 7.8028,15.75136 17.25053,15.75136 l 18.6487,0.38901 c 9.44772,0 18.06356,-11.62598 18.06356,-19.5652 0,-7.93921 -9.0048,-18.04301 -18.84153,-15.3201 z"
       id="path3898"
       sodipodi:nodetypes="ccsccsc"
       inkscape:connector-curvature="0" /><path
       sodipodi:nodetypes="ccsccsc"
       id="rect3871-51"
       d="m 247.40862,374.70981 12.09007,1.9647 c 9.38426,3.23597 15.45943,6.50709 15.45943,14.44629 0,7.93921 -11.22834,12.25045 -18.036,12.25045 l -9.5135,0 c -6.80771,0 -13.57656,-8.12507 -13.57656,-16.06428 0,-7.93921 6.76885,-12.59716 13.57656,-12.59716 z"
       style="fill:#1a1a1a;fill-opacity:1;stroke:none"
       inkscape:connector-curvature="0" /><path
       style="fill:#1a1a1a;fill-opacity:1;stroke:none"
       d="m 310.39452,374.32085 -12.09007,1.96469 c -9.38426,3.23596 -15.45944,6.50708 -15.45944,14.44628 0,7.93922 11.22834,12.25045 18.03602,12.25045 l 9.51349,0 c 6.8077,0 13.57655,-8.12507 13.57655,-16.06428 0,-7.93921 -6.76885,-12.59714 -13.57655,-12.59714 z"
       id="path3922"
       sodipodi:nodetypes="ccsccsc"
       inkscape:connector-curvature="0" /><path
       sodipodi:nodetypes="ccccscccc"
       id="rect3930"
       d="m 276.45295,245.98487 c 2.90925,0 5.25139,12.4246 5.25139,14.57016 1.70587,10.38606 1.66128,17.20898 1.0332,34.07469 l -3.22129,43.01229 c 0,2.14552 -1.29704,3.92506 -2.4312,3.87281 -1.57063,-0.0724 -2.60138,-1.88867 -2.60138,-4.03422 l -4.31548,-43.62371 c -0.95984,-11.0438 -0.64027,-21.97432 0.74161,-33.20462 0,-2.14558 2.63388,-14.6674 5.54315,-14.6674 z"
       style="fill:#1a1a1a;fill-opacity:1;stroke:none"
       inkscape:connector-curvature="0" /><ellipse
       transform="matrix(1.8177802,0,0,2.3052551,-112.31312,-143.23043)"
       id="path3933"
       style="fill:#1a1a1a;fill-opacity:1;stroke:none"
       cx="203.25"
       cy="108.379"
       rx="2.875"
       ry="2.625" /><ellipse
       transform="matrix(1.8177802,0,0,2.3052551,-72.842174,-142.81782)"
       id="path3933-7"
       style="fill:#1a1a1a;fill-opacity:1;stroke:none"
       cx="203.25"
       cy="108.379"
       rx="2.875"
       ry="2.625" /><path
       sodipodi:nodetypes="ccccscccccc"
       id="rect3965"
       d="m 349.85632,47.607409 c -5.6439,4.419402 -9.27437,5.624815 -15.27204,9.759623 -11.35366,9.932215 -11.61455,10.923773 -16.58104,17.710231 -9.83375,13.99129 -11.85015,19.647384 -17.98,28.208437 -0.63231,1.06807 -1.82848,3.08368 -2.80884,2.93726 -1.10267,-0.16459 -0.37619,-5.51916 0.25042,-7.056225 4.6119,-10.361319 7.63442,-19.06467 12.23259,-27.608007 3.62293,-7.186932 8.34949,-18.5408 15.40357,-23.051252 6.15234,-3.938503 13.10729,-8.845234 23.43727,-10.67342 3.70168,-1.063447 5.76753,1.353628 6.06976,2.506611 0.40565,2.461862 0.57464,3.524388 -4.75169,7.266742 z"
       style="fill:#1a1a1a;fill-opacity:1;stroke:none"
       inkscape:connector-curvature="0" /><path
       sodipodi:nodetypes="ccsccsc"
       id="rect3871-51-5"
       d="m 236.90115,134.09025 10.52903,1.37901 c 8.17259,2.27133 13.46337,4.56735 13.46337,10.13986 0,5.57254 -9.77858,8.59861 -15.70728,8.59861 l -8.28512,0 c -5.92873,0 -11.8236,-5.70299 -11.8236,-11.27552 0,-5.57254 5.89487,-8.84196 11.8236,-8.84196 z"
       style="fill:#1a1a1a;fill-opacity:1;stroke:none"
       inkscape:connector-curvature="0" /><path
       style="fill:#1a1a1a;fill-opacity:1;stroke:none"
       d="m 316.76779,133.00664 -11.55822,1.39225 c -8.97143,2.29311 -14.77937,4.61113 -14.77937,10.23715 0,5.62598 10.73438,8.68107 17.24262,8.68107 l 9.09497,0 c 6.50824,0 12.97932,-5.75769 12.97932,-11.3837 0,-5.62601 -6.47108,-8.92677 -12.97932,-8.92677 z"
       id="path3922-2"
       sodipodi:nodetypes="ccsccsc"
       inkscape:connector-curvature="0" /><path
       sodipodi:nodetypes="ccsccscc"
       id="rect3871-7"
       d="m 267.60043,154.32724 0.20508,-7.57708 c 1.57932,-7.42383 3.72702,-13.0304 8.21702,-13.08545 4.48777,-0.055 7.77383,7.74814 7.9551,13.08861 l 0.11579,7.4631 c 0.18132,5.34047 -3.68124,10.94389 -8.16898,11.09622 -4.48778,0.15227 -8.14282,-5.64491 -8.32408,-10.9854 l 8e-5,0 z"
       style="fill:#1a1a1a;fill-opacity:1;stroke:none"
       inkscape:connector-curvature="0" /><path
       sodipodi:nodetypes="ccccscccc"
       id="rect3930-6"
       d="m 341.94559,133.83886 c -2.76702,-0.8986 -1.15705,-13.4391 -0.49433,-15.47976 1.58549,-10.40513 3.73527,-16.88064 9.542,-32.727703 l 16.34898,-39.914229 c 0.66277,-2.040596 2.44598,-3.332522 3.50853,-2.932514 1.47148,0.553979 1.89083,2.599809 1.22814,4.640446 l -9.36961,42.823626 c -2.49822,10.800294 -6.17826,21.097634 -10.96126,31.352004 -0.66281,2.04065 -7.03553,13.13666 -9.80245,12.23813 z"
       style="fill:#1a1a1a;fill-opacity:1;stroke:none"
       inkscape:connector-curvature="0" /><path
       sodipodi:nodetypes="ccccscccc"
       id="rect3930-6-1"
       d="m 367.85801,46.719362 c -0.91405,-1.8477 3.29846,-5.84217 4.15295,-6.275089 3.60052,-3.179057 6.33185,-4.527442 13.24625,-7.531626 l 18.14246,-6.632937 c 0.8547,-0.432482 1.97068,0.03175 2.30622,0.762514 0.46468,1.012164 0.065,2.03325 -0.78939,2.46616 l -16.0181,11.542973 c -4.09682,2.837949 -8.55046,4.840532 -13.45729,6.228864 -0.85473,0.432491 -6.66909,1.286668 -7.5831,-0.560955 z"
       style="fill:#1a1a1a;fill-opacity:1;stroke:none"
       inkscape:connector-curvature="0" /><path
       sodipodi:nodetypes="ccccscccc"
       id="rect3930-6-2"
       d="m 349.43849,168.71075 c -1.9137,-2.19127 7.97848,-13.93642 9.95312,-15.66033 8.43591,-9.62916 14.74457,-15.07754 30.68002,-28.15567 l 41.70562,-32.133637 c 1.97398,-1.72453 4.46601,-2.177089 5.16434,-1.281232 0.96713,1.240684 -0.0262,3.476022 -2.00067,5.199874 l -37.30799,38.299185 c -9.53227,9.59597 -19.80225,18.13765 -31.04731,26.12041 -1.9741,1.7246 -15.23243,9.80164 -17.14713,7.6114 z"
       style="fill:#1a1a1a;fill-opacity:1;stroke:none"
       inkscape:connector-curvature="0" /><path
       sodipodi:nodetypes="ccccscccc"
       id="rect3930-6-1-2"
       d="m 432.93985,92.538595 c 0.49072,-2.002159 6.28583,-2.344964 7.21835,-2.125825 4.8018,-0.113246 7.75966,0.614383 14.98398,2.769233 l 18.15083,6.610044 c 0.93237,0.219603 1.48711,1.293473 1.27317,2.068593 -0.29639,1.07359 -1.25964,1.5974 -2.19216,1.37822 l -19.68788,-1.4857 c -4.9618,-0.46741 -9.65854,-1.8037 -14.30642,-3.901772 -0.93242,-0.219606 -5.93052,-3.310762 -5.43981,-5.31285 z"
       style="fill:#1a1a1a;fill-opacity:1;stroke:none"
       inkscape:connector-curvature="0" /><path
       sodipodi:nodetypes="ccccscccc"
       id="rect3930-6-2-1"
       d="m 393.26587,223.88458 c 2.65874,-1.18111 10.95812,11.7388 12.02186,14.13449 6.70794,10.90366 10.0499,18.54011 17.83786,37.62738 l 18.38177,49.33598 c 1.06454,2.39528 0.76088,4.90979 -0.30127,5.31238 -1.47099,0.55751 -3.31323,-1.05171 -4.37701,-3.44726 l -25.57112,-46.95562 c -6.35239,-11.94128 -11.47961,-24.27597 -15.78489,-37.37713 -1.06458,-2.3954 -4.86525,-17.44786 -2.2072,-18.63022 z"
       style="fill:#1a1a1a;fill-opacity:1;stroke:none"
       inkscape:connector-curvature="0" /><path
       sodipodi:nodetypes="ccccscccc"
       id="rect3930-6-1-2-6"
       d="m 436.44925,325.20408 c 1.05098,-1.77366 8.08546,0.32107 9.15413,0.92935 5.78933,1.90465 9.17155,3.86626 17.34505,9.03091 l 20.25967,14.15874 c 1.06804,0.60933 1.48646,1.90351 1.05077,2.58013 -0.60346,0.9371 -1.88043,1.05054 -2.94907,0.44224 l -23.28693,-9.73718 c -5.84739,-2.54596 -11.17619,-5.83973 -16.2705,-9.86628 -1.06808,-0.60935 -6.35397,-5.76429 -5.30302,-7.53792 z"
       style="fill:#1a1a1a;fill-opacity:1;stroke:none"
       inkscape:connector-curvature="0" /><path
       style="fill:#1a1a1a;fill-opacity:1;stroke:none"
       d="m 206.48834,127.59035 c -1.00468,3.02909 4.63619,7.74003 5.74996,8.13247 4.80255,3.67563 8.35985,4.87719 17.33221,7.30801 l 23.44138,4.51322 c 1.11452,0.39018 2.48557,-0.63256 2.85021,-1.82246 0.50492,-1.64857 -0.0819,-3.05395 -1.19579,-3.44631 l -21.1557,-12.47199 c -5.40162,-3.01926 -11.18628,-4.68579 -17.49351,-5.301 -1.11459,-0.39021 -8.52397,0.0597 -9.52876,3.08858 z"
       id="path4246"
       sodipodi:nodetypes="ccccscccc"
       inkscape:connector-curvature="0" /></g><g
     inkscape:groupmode="layer"
     id="layer1"
     inkscape:label="bckg_text"
     style="display:none"><g
       style="font-style:normal;font-weight:normal;font-size:40px;font-family:Santana;-inkscape-font-specification:Santana;fill:#000000;fill-opacity:1;stroke:#c26767;stroke-width:3.54429984;stroke-miterlimit:4;stroke-dasharray:none;stroke-opacity:1"
       id="text4059"
       transform="matrix(10.576,0,0,9.9412105,4297.2664,1700.782)"><path
         inkscape:connector-curvature="0"
         d="m -380.55981,-156.82558 c -3e-5,-1.76023 -0.26004,-3.36037 -0.78003,-4.80041 -0.52005,-1.44 -1.33995,-2.77321 -2.45972,-3.99964 -1.28013,-1.38669 -2.98016,-2.45338 -5.1001,-3.20007 -2.11997,-0.74664 -4.61997,-1.11997 -7.5,-1.11999 -1.52019,2e-5 -2.94699,0.06 -4.28039,0.18005 -1.33342,0.12006 -2.5999,0.25983 -3.79944,0.41931 l 0,26.60034 c 1.17268,0.10661 2.32584,0.17334 3.45947,0.2002 1.13362,0.0269 2.31363,0.0403 3.54004,0.0403 3.04035,0 5.67381,-0.39998 7.90039,-1.19995 2.22654,-0.79997 3.9929,-1.89331 5.29907,-3.28003 1.41355,-1.52018 2.38706,-3.15368 2.92053,-4.90051 0.53342,-1.74682 0.80015,-3.39334 0.80018,-4.93958 z m -2.00074,0.0391 c -2e-5,1.76026 -0.28668,3.40699 -0.85998,4.94018 -0.57335,1.53321 -1.44656,2.86663 -2.61963,4.00025 -1.17312,1.13363 -2.67967,2.03369 -4.51965,2.70019 -1.84003,0.66651 -4.04014,0.99976 -6.60035,0.99976 -1.09294,0 -2.09941,-0.0132 -3.01941,-0.0397 -0.92001,-0.0264 -1.70024,-0.093 -2.34069,-0.19958 l 0,-23.40088 c 0.69335,-0.13344 1.5334,-0.25347 2.52014,-0.36011 0.98672,-0.10658 2.13357,-0.15988 3.44055,-0.15991 2.45279,3e-5 4.56582,0.2934 6.33911,0.88013 1.77326,0.58677 3.22671,1.39345 4.36035,2.42004 1.13361,1.02663 1.96694,2.24001 2.5,3.64014 0.53302,1.40016 0.79954,2.92665 0.79956,4.57947 z"
         id="path4068"
         style="stroke:#c26767;stroke-width:3.54429984;stroke-miterlimit:4;stroke-dasharray:none;stroke-opacity:1" /><path
         inkscape:connector-curvature="0"
         d="m -359.37573,-142.74599 0,-1.6394 -14.16016,0 0,-11.76026 12.00073,0 0,-1.64062 -12.00073,0 0,-10.27954 11.87988,0 0,-1.64063 -13.83911,0 0,26.96045 z"
         id="path4070"
         style="stroke:#c26767;stroke-width:3.54429984;stroke-miterlimit:4;stroke-dasharray:none;stroke-opacity:1" /></g><g
       style="font-style:normal;font-weight:normal;font-size:40px;font-family:Santana;-inkscape-font-specification:Santana;fill:#000000;fill-opacity:1;stroke:#c26767;stroke-width:3.54429984;stroke-miterlimit:4;stroke-dasharray:none;stroke-opacity:1"
       id="text4063"
       transform="matrix(6.8224958,0,0,6.8224958,2707.067,1102.9148)"><path
         inkscape:connector-curvature="0"
         d="m -378.04028,-96.265518 c -2e-5,-1.146639 -0.21324,-2.119945 -0.63965,-2.919922 -0.42645,-0.799956 -0.94647,-1.47338 -1.56006,-2.02026 -0.61362,-0.54687 -1.26039,-0.96028 -1.94031,-1.24024 -0.67994,-0.27993 -1.25998,-0.47321 -1.74011,-0.57983 l 0,-0.11963 c 0.6673,-0.24006 1.29413,-0.56009 1.88049,-0.96008 0.58633,-0.39997 1.09292,-0.85997 1.51978,-1.38001 0.42682,-0.52 0.76027,-1.09332 1.00036,-1.71997 0.24006,-0.62661 0.36009,-1.27358 0.36011,-1.94092 -2e-5,-1.83998 -0.56032,-3.31988 -1.68091,-4.43969 -0.79998,-0.79995 -1.80645,-1.39321 -3.01941,-1.77979 -1.21298,-0.38653 -2.73947,-0.57981 -4.57946,-0.57983 -1.12062,2e-5 -2.20094,0.0533 -3.24097,0.15991 -1.04004,0.10663 -1.97307,0.25312 -2.79907,0.43945 l 0,26.600343 c 0.61279,0.05371 1.35253,0.107218 2.21924,0.160523 0.86669,0.0533 1.82006,0.07995 2.8601,0.07996 2.18668,-10e-7 4.05334,-0.21342 5.59998,-0.640259 1.54661,-0.426839 2.78664,-1.106973 3.72009,-2.040405 0.61359,-0.613604 1.10696,-1.333615 1.4801,-2.160035 0.37311,-0.82641 0.55968,-1.799513 0.5597,-2.919311 z m -3.12012,-12.800292 c -2e-5,0.72023 -0.1467,1.40016 -0.44006,2.03979 -0.2934,0.63967 -0.72003,1.19957 -1.27991,1.67969 -0.55991,0.48016 -1.25307,0.86021 -2.07947,1.14014 -0.82643,0.27996 -1.77308,0.41993 -2.83996,0.41992 l -4.72046,0 0,-10.2002 c 0.34667,-0.0797 0.82681,-0.15296 1.44043,-0.21972 0.6136,-0.0667 1.45344,-0.10007 2.51953,-0.1001 0.98713,3e-5 1.93399,0.08 2.84057,0.23987 0.90657,0.15994 1.6931,0.44009 2.35962,0.84045 0.66649,0.40042 1.19973,0.93386 1.59973,1.60034 0.39997,0.66653 0.59996,1.5198 0.59998,2.55982 z m 1.08032,12.879638 c -2e-5,1.200364 -0.25331,2.187098 -0.75989,2.960205 -0.5066,0.773115 -1.1666,1.393028 -1.97998,1.859741 -0.81341,0.466717 -1.73341,0.786745 -2.76001,0.960083 -1.02662,0.173341 -2.07337,0.260011 -3.14025,0.26001 -0.79998,1e-6 -1.51999,-0.01322 -2.16004,-0.03967 -0.64006,-0.02645 -1.18673,-0.09298 -1.64001,-0.199585 l 0,-11.800542 4.04052,0 c 1.14664,2e-5 2.22655,0.11334 3.23975,0.33997 1.01317,0.22665 1.89981,0.58005 2.65991,1.06018 0.76008,0.48015 1.36677,1.100069 1.82007,1.859742 0.45327,0.759694 0.67991,1.672982 0.67993,2.739869 z"
         id="path4073"
         style="stroke:#c26767;stroke-width:3.54429984;stroke-miterlimit:4;stroke-dasharray:none;stroke-opacity:1" /><path
         inkscape:connector-curvature="0"
         d="m -351.927,-100.30605 0,-15.40039 -1.96045,0 0,15.56031 c -2e-5,1.787116 -0.21324,3.320521 -0.63965,4.600216 -0.42645,1.27971 -1.01971,2.339686 -1.77978,3.179932 -0.76011,0.840253 -1.66018,1.46037 -2.7002,1.860352 -1.04006,0.399985 -2.1867,0.599976 -3.43994,0.599975 -1.11981,10e-7 -2.17307,-0.19348 -3.15979,-0.580444 -0.98675,-0.386961 -1.84673,-0.986936 -2.57996,-1.799927 -0.73324,-0.812984 -1.31328,-1.866246 -1.74011,-3.15979 -0.42684,-1.29353 -0.64026,-2.860301 -0.64026,-4.700314 l 0,-15.56031 -1.95923,0 0,15.60059 c 0,2.213551 0.27323,4.073493 0.8197,5.579834 0.54647,1.506352 1.2797,2.719526 2.19971,3.639526 0.92,0.920005 1.97997,1.586711 3.17993,2.000122 1.19994,0.413411 2.4534,0.620117 3.76038,0.620117 1.4396,0 2.79946,-0.21993 4.07959,-0.65979 1.28009,-0.439859 2.4068,-1.139728 3.38013,-2.099609 0.97328,-0.959876 1.7466,-2.20662 2.31994,-3.740234 0.5733,-1.533603 0.85996,-3.380321 0.85999,-5.540166 z"
         id="path4075"
         style="stroke:#c26767;stroke-width:3.54429984;stroke-miterlimit:4;stroke-dasharray:none;stroke-opacity:1" /><path
         inkscape:connector-curvature="0"
         d="m -323.15015,-89.385635 0,-12.680665 -8.92089,0 0,1.60034 6.96044,0 0,9.239504 c -0.61363,0.32064 -1.4671,0.587567 -2.56042,0.800782 -1.09336,0.213217 -2.47988,0.319825 -4.15955,0.319824 -2.05323,10e-7 -3.88652,-0.300088 -5.49987,-0.900269 -1.61338,-0.600176 -2.97344,-1.440222 -4.0802,-2.520141 -1.10678,-1.07991 -1.95354,-2.353102 -2.54029,-3.81958 -0.58675,-1.466462 -0.88013,-3.07982 -0.88012,-4.84009 -10e-6,-1.67967 0.28665,-3.25295 0.85998,-4.71985 0.57332,-1.46686 1.4333,-2.75368 2.57996,-3.86047 1.14664,-1.10675 2.56001,-1.98016 4.24011,-2.62024 1.68008,-0.64003 3.6269,-0.96006 5.84045,-0.96008 1.46646,2e-5 2.73314,0.12677 3.80005,0.38025 1.06687,0.25352 2.01333,0.56704 2.83936,0.94055 l 0.64087,-1.60034 c -0.55992,-0.2669 -1.47993,-0.56028 -2.76001,-0.88013 -1.28013,-0.3198 -2.76044,-0.47971 -4.44092,-0.47974 -2.71974,3e-5 -5.05962,0.41995 -7.01965,1.25977 -1.96005,0.83987 -3.57993,1.91978 -4.85962,3.23974 -1.27971,1.32001 -2.22637,2.7934 -2.83997,4.42017 -0.61361,1.62681 -0.92041,3.22674 -0.92041,4.79981 0,2.05404 0.35339,3.947555 1.06018,5.680537 0.70678,1.732998 1.65995,3.159795 2.8595,4.280396 1.52017,1.412762 3.17361,2.405803 4.96033,2.979126 1.78669,0.573323 3.72007,0.859985 5.80017,0.859985 1.54702,0 2.93373,-0.106608 4.16015,-0.319824 1.22638,-0.213216 2.26642,-0.453287 3.12012,-0.720215 0.37351,-0.106607 0.70676,-0.113118 0.99976,-0.01953 0.29294,0.09359 0.54644,0.140381 0.76049,0.140381 z"
         id="path4077"
         style="stroke:#c26767;stroke-width:3.54429984;stroke-miterlimit:4;stroke-dasharray:none;stroke-opacity:1" /></g></g></svg>